<svg xmlns="http://www.w3.org/2000/svg" viewBox="0 0 248.66 212.54" class="w-full h-auto">
  <polygon points="1.5 30.59 1.5 88.96 130.6 76.52 130.6 32.96 1.5 30.59" class="stroke-[#b12d88] stroke-[3px] fill-none"/>
  <polygon points="146.76 96.3 239.14 96.3 246.53 209.41 146.76 210.52 146.76 96.3" class="stroke-[#f3e72a] stroke-[4px] fill-none"/>
  <path d="m199.6,57.08s3.82,5.1,4.62,9.55,0,25.22,0,25.22" class="stroke-[#b12d88] stroke-[3px] fill-none"/>
  <polyline points="133.59 91.85 229.97 91.85 239.14 96.3" class="stroke-[#f3e72a] stroke-[4px] fill-none"/>
  <path d="m198.89,55.33s5.44,2.41,8.43,6.96,3.59,10.44,3.59,10.44v37.89" class="stroke-[#b12d88] stroke-[3px] fill-none"/>
  <path d="m155.88,70.42c10.27,3.3,21.69,5.19,32.35,2.76,2.49-.71,6.16-1.73,6.72-4.42,0,.01,0-.05.01.1l-.03-.34c-.03-.92-.44-2.22-1.16-2.79,0,0,.86-3.5.86-3.5,4.34-.79,4.52-6.04,1.09-8.22,0,0-4.22-2.86-4.22-2.86l5.08.42c1.36.12,3.42-.2,3.58-1.76.16-1.05.33-2.38-.31-3.25.01.02-.04-.03.08.11,0,.01-.07-2.75-.07-2.74.57-.62,1.41-1.03,2-1.57,1.1-.95,1.5-2.36,1.59-3.79.18-1.33-.31-2.16-1.57-2.73-1.42-.7-3.49-.99-5.22-1.02-.33.03-2.52.13-2.9.16-4.8.19-9.31.43-14.22,0-1.16-.18-1.77-.15-3.05-.81-2.81-1.74-.46-6.47-.09-8.87,1.6-5.71,3.11-19.64-4.47-21.28-.09-.01-.29-.01-.22-.02l.33-.05c.16-.04.05-.01.05,0-1.69,1.05-1.41,3.62-1.44,5.4-.32,6.9-1.16,14.13-5.29,20.01-3.59,4.1-6.07,9.07-8.31,14.03,0,0-3.68-1.57-3.68-1.57,2.38-5.26,5-10.52,8.83-14.92,3.41-4.95,4.19-11.62,4.45-17.61-.22-3.53.58-8.18,4.61-9.27,4.13-.26,7.63,3.18,8.95,6.73,3.06,7.74.95,16.25-.97,23.88-.06.32-.1.64-.1.81,0,.09.02.12-.02,0,0,0-.02-.09-.05-.14-.04-.07-.03-.05-.14-.23-.22-.28-.3-.3-.36-.35,3.12.67,6.94.45,10.42.42,2.57-.05,5.33-.24,7.9-.33,4.11.05,10.16,1.47,10.57,6.55.17,2.87-.66,6.04-2.93,7.98-.5.47-1.28.97-1.68,1.25,0,0-.07-2.75-.07-2.75,1.03,1.16,1.26,2.8,1.17,4.25-.21,4.68-3.34,7.02-7.86,6.04,0,0,.86-2.43.86-2.43,6.48,3.34,5.7,12.57-1.5,14.45,0,0,.86-3.5.86-3.5,1.8,1.55,2.52,3.59,2.63,5.88-.41,11.32-24.37,10.47-33.11,8.56-3.83-.72-7.53-1.61-11.3-2.9l1.36-3.76h0Z" class="fill-[#f3e72a]"/>
  <polyline points="130.6 34.59 155.21 36.08 155.21 73.85 130.6 74.74" class="stroke-[#b12d88] stroke-[4px] fill-none"/>
  <polyline points="146.76 210.52 127.21 201.85 133.59 91.85 146.76 96.3" class="stroke-[#f3e72a] stroke-[4px] fill-none"/>
  <line x1="171.3" y1="110.08" x2="171.3" y2="75.87" class="stroke-[#b12d88] stroke-[3px] fill-none"/>
  <line x1="164.84" y1="74.85" x2="164.84" y2="91.85" class="stroke-[#b12d88] stroke-[3px] fill-none"/>
  <ellipse cx="171.3" cy="111.96" rx="2.17" ry="2.42" class="stroke-[#b12d88] stroke-[3px] fill-none"/>
  <ellipse cx="210.91" cy="112.49" rx="2.17" ry="2.42" class="stroke-[#b12d88] stroke-[3px] fill-none"/>
</svg>
